<?xml version="1.0" encoding="iso-8859-1"?>
<!-- Generator: Adobe Illustrator 19.0.0, SVG Export Plug-In . SVG Version: 6.00 Build 0)  -->
<svg version="1.1" id="Layer_1" xmlns="http://www.w3.org/2000/svg" xmlns:xlink="http://www.w3.org/1999/xlink" x="0px" y="0px"
	 viewBox="0 0 456.902 456.902" style="enable-background:new 0 0 456.902 456.902;" xml:space="preserve">
<g>
	<path style="fill:#1EA6C6;" d="M295.21,197.2c0.009-0.501,0.019-1.001,0.019-1.504c0-47.9-38.831-86.731-86.731-86.731
		c-41.279,0-75.819,28.838-84.58,67.466c-8.17-4.573-17.581-7.193-27.61-7.193c-31.293,0-56.661,25.368-56.661,56.661
		c0,1.279,0.058,2.544,0.141,3.802C16.556,238.324,0,260.685,0,286.918c0,33.7,27.319,61.019,61.019,61.019h217.62
		c42.125,0,76.274-34.149,76.274-76.274C354.913,235.23,329.367,204.768,295.21,197.2z"/>
	<path style="fill:#1D9DB2;" d="M456.902,250.415c0,35.78-29.01,64.79-64.79,64.79h-35.56c7.23-12.89,11.36-27.74,11.36-43.54
		c0-20.44-7.08-40.42-19.95-56.26c-10.51-12.93-24.49-22.68-40.08-28.1c-1.81-21.6-10.54-41.27-23.94-56.77
		c12.97-11.4,29.98-18.31,48.6-18.31c40.68,0,73.66,32.98,73.66,73.67c0,0.42-0.01,0.85-0.01,1.28
		C435.202,193.595,456.902,219.475,456.902,250.415z"/>
</g>
<g>
</g>
<g>
</g>
<g>
</g>
<g>
</g>
<g>
</g>
<g>
</g>
<g>
</g>
<g>
</g>
<g>
</g>
<g>
</g>
<g>
</g>
<g>
</g>
<g>
</g>
<g>
</g>
<g>
</g>
</svg>
