<?xml version="1.0" encoding="UTF-8"?>
<svg width="659px" height="659px" viewBox="0 0 659 659" version="1.1" xmlns="http://www.w3.org/2000/svg" xmlns:xlink="http://www.w3.org/1999/xlink">
    <title>SvgjsG1079</title>
    <g id="Page-1" stroke="none" stroke-width="1" fill="none" fill-rule="evenodd">
        <g id="SvgjsG1079" transform="translate(0.000000, 0.000000)" fill="#7045AF" fill-rule="nonzero">
            <g id="Group">
                <path d="M381.753674,118.213907 L381.753674,224.014399 L276.058548,224.014399 L276.058548,118.213907 L381.753674,118.213907 Z M406.481723,93.4529305 L251.330498,93.4529305 L251.330498,248.775376 L406.481723,248.775376 L406.481723,93.4529305 L406.481723,93.4529305 Z M381.753674,317.118305 L381.753674,447.679774 C381.753674,502.562215 346.416599,521.422704 330.842208,526.92807 C330.532696,527.040021 330.229769,527.145387 329.913672,527.257338 C330.88172,526.282704 331.823428,525.275143 332.745379,524.247826 C362.293917,477.807824 350.901233,422.918797 350.901233,422.918797 L276.058548,422.918797 L276.058548,317.118305 L381.753674,317.118305 Z M406.481723,292.363914 L251.330498,292.363914 L251.330498,447.686359 L328.767818,447.686359 C332.765135,483.655629 323.703671,529.608314 251.330498,529.608314 C251.330498,555.120022 251.330498,562.535144 251.330498,562.587827 C401.852211,562.587827 406.481723,487.824166 406.481723,447.686359 L406.481723,292.363914 L406.481723,292.363914 Z M211.337569,658.536612 L165.812933,658.536612 C112.399029,658.536612 74.6121981,642.705391 53.5060997,611.477585 C36.5817088,586.426853 34.6192697,557.33929 34.6192697,537.635875 L34.6192697,402.267089 C34.5204892,401.140992 33.9278062,381.694405 12.3673176,381.694405 L0,381.694405 L0,276.842206 L12.3673176,276.842206 C38.04366,276.842206 34.6192697,255.742693 34.6192697,255.742693 L34.6192697,120.900737 C34.6192697,101.197321 36.5817088,72.109759 53.5060997,47.0656116 C74.6121981,15.8312201 112.399029,0 165.812933,0 L211.344155,0 L211.344155,104.832443 L165.812933,104.832443 C154.940494,104.832443 139.346347,107.446834 139.346347,122.421956 C139.346347,122.915859 139.339762,255.512205 139.339762,255.512205 C139.372688,259.766352 139.030249,296.400743 118.200736,329.26172 C139.030249,362.122697 139.372688,398.763674 139.333176,403.116601 C139.333176,403.116601 139.352932,536.799534 139.352932,537.10246 C139.352932,553.954412 154.933909,553.697583 165.812933,553.697583 L211.337569,553.697583 L211.337569,658.536612 Z M59.3473194,402.859772 L59.3473194,537.635875 C59.3473194,555.475632 61.0068317,578.405877 73.9865883,597.595634 C90.2129304,621.605878 121.104883,633.775635 165.812933,633.775635 L186.60952,633.775635 L186.60952,578.45856 L165.812933,578.45856 C147.946835,578.45856 114.624883,573.038803 114.624883,537.049777 C114.611712,537.049777 114.611712,536.839046 114.611712,536.839046 L114.611712,536.259534 L114.611712,403.017821 C114.605127,355.971965 87.7170767,329.268306 87.7170767,329.268306 C87.7170767,329.268306 112.721712,301.827085 114.605127,255.617571 L114.605127,121.467078 C114.552444,107.571955 120.439761,98.694882 125.391956,93.6900037 C134.341469,84.6548814 147.94025,80.078052 165.806348,80.078052 L186.602934,80.078052 L186.602934,24.7609766 L165.806348,24.7609766 C121.098297,24.7609766 90.206345,36.9307332 73.9800029,60.940978 C61.0068317,80.1373203 59.3407341,103.067565 59.3407341,120.900737 L59.3473194,256.453913 C59.3473194,256.58562 57.0885389,300.233427 24.7214644,300.233427 L24.7214644,358.290014 C59.6700024,366.785137 59.3473194,401.944406 59.3473194,402.122211 L59.3473194,402.859772 Z M447.199042,658.536612 L447.199042,553.697583 L492.730263,553.697583 C503.596118,553.697583 519.190265,553.954412 519.190265,537.10246 C519.190265,536.799534 519.203435,403.116601 519.203435,403.116601 C519.163923,398.77026 519.512947,362.129283 540.335875,329.268306 C519.512947,296.407329 519.163923,259.772937 519.203435,255.518791 C519.203435,255.518791 519.190265,122.922444 519.190265,122.428541 C519.190265,107.453419 503.602703,104.839029 492.723678,104.839029 L447.199042,104.839029 L447.199042,0 L492.723678,0 C546.130997,0 583.924413,15.8312201 605.030512,47.0656116 C621.954903,72.109759 623.917342,101.197321 623.917342,120.900737 L623.917342,255.742693 C623.917342,255.742693 620.486366,276.842206 646.175879,276.842206 L658.536612,276.842206 L658.536612,381.694405 L646.175879,381.694405 C624.608805,381.694405 624.016122,401.140992 623.917342,402.267089 L623.923927,537.635875 C623.923927,557.33929 621.961488,586.426853 605.037097,611.477585 C583.930999,642.705391 546.150753,658.536612 492.730263,658.536612 L447.199042,658.536612 Z M599.189292,402.859772 L599.182707,402.135382 C599.176121,401.957577 598.853438,366.798307 633.801976,358.303185 L633.801976,300.246597 C601.441487,300.246597 599.176121,256.592205 599.176121,256.467083 L599.182707,120.913907 C599.182707,103.080736 597.516609,80.1439056 584.550023,60.9541488 C568.323681,36.9307332 537.425143,24.7609766 492.723678,24.7609766 L471.927092,24.7609766 L471.927092,80.078052 L492.723678,80.078052 C510.583191,80.078052 524.181972,84.6548814 533.13807,93.6900037 C538.096851,98.694882 543.977583,107.56537 543.911729,121.467078 C543.931485,121.467078 543.931485,255.617571 543.931485,255.617571 C545.8149,301.827085 570.819535,329.268306 570.819535,329.268306 C570.819535,329.268306 543.93807,355.971965 543.93807,403.017821 L543.93807,536.252948 L543.93807,536.83246 L543.93807,537.043192 C543.918314,573.032218 510.596362,578.451974 492.736849,578.451974 L471.940263,578.451974 L471.940263,633.76905 L492.736849,633.76905 C537.438314,633.76905 568.330266,621.599293 584.556609,597.589048 C597.52978,578.399291 599.195877,555.469046 599.195877,537.62929 L599.195877,402.859772 L599.189292,402.859772 Z" id="Shape"></path>
            </g>
        </g>
    </g>
</svg>