
        <svg xmlns="http://www.w3.org/2000/svg" xmlns:xlink="http://www.w3.org/1999/xlink" version="1.1" width="3182.9268292682927" 
        height="841.4634146341464" viewBox="0 0 3182.9268292682927 841.4634146341464">
			
			<g transform="scale(9.146341463414634) translate(10, 10)">
				<defs id="SvgjsDefs1078"></defs><g id="SvgjsG1079" featureKey="symbolFeature-0" transform="matrix(0.7200000286102295,0,0,0.7200000286102295,0,0)" fill="#7045af"><g xmlns="http://www.w3.org/2000/svg"><path d="M57.97,17.951v16.066H41.92V17.951H57.97z M61.725,14.191h-23.56v23.586h23.56V14.191z M57.97,48.155v19.826   c0,8.334-5.366,11.198-7.731,12.034c-0.047,0.017-0.093,0.033-0.141,0.05c0.147-0.148,0.29-0.301,0.43-0.457   c4.487-7.052,2.757-15.387,2.757-15.387H41.92V48.155H57.97z M61.725,44.396h-23.56v23.586h11.759   c0.607,5.462-0.769,12.44-11.759,12.44c0,3.874,0,5,0,5.008c22.857,0,23.56-11.353,23.56-17.448V44.396z M32.092,100h-6.913   c-8.111,0-13.849-2.404-17.054-7.146c-2.57-3.804-2.868-8.221-2.868-11.213V61.085c-0.015-0.171-0.105-3.124-3.379-3.124H0V42.039   h1.878c3.899,0,3.379-3.204,3.379-3.204l0-20.476c0-2.992,0.298-7.409,2.868-11.212C11.33,2.404,17.068,0,25.179,0h6.914v15.919   h-6.914c-1.651,0-4.019,0.397-4.019,2.671c0,0.075-0.001,20.21-0.001,20.21c0.005,0.646-0.047,6.209-3.21,11.199   c3.163,4.99,3.215,10.554,3.209,11.215c0,0,0.003,20.3,0.003,20.346c0,2.559,2.366,2.52,4.018,2.52h6.913V100z M9.012,61.175   l0,20.466c0,2.709,0.252,6.191,2.223,9.105c2.464,3.646,7.155,5.494,13.944,5.494h3.158v-8.4h-3.158   c-2.713,0-7.773-0.823-7.773-6.288c-0.002,0-0.002-0.032-0.002-0.032l0-0.088V61.199C17.403,54.055,13.32,50,13.32,50   s3.797-4.167,4.083-11.184V18.445c-0.008-2.11,0.886-3.458,1.638-4.218c1.359-1.372,3.424-2.067,6.137-2.067h3.158v-8.4h-3.158   c-6.789,0-11.48,1.848-13.944,5.494c-1.97,2.915-2.223,6.397-2.223,9.105l0.001,20.584c0,0.02-0.343,6.648-5.258,6.648v8.816   c5.307,1.29,5.258,6.629,5.258,6.656L9.012,61.175z M67.908,100V84.08h6.914c1.65,0,4.018,0.039,4.018-2.52   c0-0.046,0.002-20.346,0.002-20.346C78.836,60.554,78.889,54.99,82.051,50c-3.162-4.99-3.215-10.553-3.209-11.199   c0,0-0.002-20.135-0.002-20.21c0-2.274-2.367-2.671-4.019-2.671h-6.913V0h6.913c8.11,0,13.849,2.404,17.054,7.147   c2.57,3.803,2.868,8.22,2.868,11.212v20.476c0,0-0.521,3.204,3.38,3.204H100v15.922h-1.877c-3.275,0-3.365,2.953-3.38,3.124   l0.001,20.556c0,2.992-0.298,7.409-2.868,11.213C88.671,97.596,82.934,100,74.822,100H67.908z M90.988,61.175l-0.001-0.11   c-0.001-0.027-0.05-5.366,5.257-6.656v-8.816c-4.914,0-5.258-6.629-5.258-6.648l0.001-20.584c0-2.708-0.253-6.191-2.222-9.105   C86.301,5.608,81.609,3.76,74.821,3.76h-3.158v8.4h3.158c2.712,0,4.777,0.695,6.137,2.067c0.753,0.76,1.646,2.107,1.636,4.218   c0.003,0,0.003,20.371,0.003,20.371C82.883,45.833,86.68,50,86.68,50s-4.082,4.055-4.082,11.199v20.232v0.088v0.032   c-0.003,5.465-5.063,6.288-7.775,6.288h-3.158v8.4h3.158c6.788,0,11.479-1.848,13.943-5.494c1.97-2.914,2.223-6.396,2.223-9.105   V61.175z"></path></g></g><g id="SvgjsG1080" featureKey="textGroupContainer" transform="matrix(1,0,0,1,327,5)" fill="#111111"><rect xmlns="http://www.w3.org/2000/svg" y="0" height="1" width="1" opacity="0"></rect><rect xmlns="http://www.w3.org/2000/svg" y="0" x="-235" width="3" height="62"></rect></g><g id="SvgjsG1081" featureKey="nameFeature-0" transform="matrix(0.5355613231658936,0,0,0.5355613231658936,109.22879194052798,12.795200917619448)" fill="#111111"><path d="M21.52 33.16 l0 6.16 c-2.48 0.68 -4.96 0.96 -7.52 0.96 c-7.52 0 -12.56 -5.16 -12.56 -12.48 c0 -7.52 5.24 -12.48 12.52 -12.48 c2.52 0 5.16 0.2 7.56 0.96 l0 6.16 c-1.96 -0.96 -5.04 -1.32 -7.2 -1.32 c-4.88 0 -6.88 2 -6.88 6.64 c0 4.92 2.36 6.72 6.92 6.72 c2.04 0 5.36 -0.32 7.16 -1.32 z M40.16 35.04 l-9 0 l-1.76 4.96 l-6.52 0 l9.8 -24.48 l6 0 l9.8 24.48 l-6.56 0 z M33.12 29.48 l5.08 0 l-2.52 -7.12 z M56.92 21.16 l0 5.84 l5.6 0 c1.84 0 2.92 -1.08 2.92 -2.92 s-1.08 -2.92 -2.92 -2.92 l-5.6 0 z M66 30.96 c1.12 1.52 2.24 3.04 3.4 4.52 c1.12 1.48 2.24 3 3.36 4.52 l-7.32 0 c-1.44 -1.92 -2.84 -3.84 -4.24 -5.76 c-1.4 -1.88 -2.84 -3.8 -4.28 -5.72 l0 11.48 l-6 0 l0 -24.48 l11.6 0 c4.56 0 8.44 3.48 8.44 8.08 c0 3.24 -2 6.08 -4.96 7.36 z M83.88 40 l-8.6 0 l0 -24.48 l8.6 0 c7.48 0 12.6 4.88 12.6 12.24 c0 7.56 -5.4 12.24 -12.6 12.24 z M81.28 21.08 l0 13.36 l2.6 0 c4.24 0 6.6 -2.68 6.6 -6.68 c0 -0.92 -0.12 -1.76 -0.36 -2.6 c-1.04 -2.92 -3.32 -4.08 -6.24 -4.08 l-2.6 0 z M115.36 35.04 l-9 0 l-1.76 4.96 l-6.52 0 l9.8 -24.48 l6 0 l9.8 24.48 l-6.56 0 z M108.32000000000001 29.48 l5.08 0 l-2.52 -7.12 z M141.72 15.52 l6 0 l0 24.48 l-6 0 l-9.6 -14.32 l0 14.32 l-6 0 l0 -24.48 l6 0 l9.6 14.32 l0 -14.32 z M164.07999999999998 34.64 c4.36 0 6.6 -2.8 6.6 -6.88 c0 -4.32 -2.4 -6.88 -6.6 -6.88 c-4.4 0 -6.6 2.8 -6.6 6.88 c0 4.24 2.44 6.88 6.6 6.88 z M164.07999999999998 40.2 c-7.52 0 -12.6 -5.12 -12.6 -12.44 c0 -7.56 5.32 -12.44 12.6 -12.44 c7.56 0 12.6 5.08 12.6 12.44 c0 7.6 -5.28 12.44 -12.6 12.44 z M208.44000000000003 33.16 l0 6.16 c-2.48 0.68 -4.96 0.96 -7.52 0.96 c-7.52 0 -12.56 -5.16 -12.56 -12.48 c0 -7.52 5.24 -12.48 12.52 -12.48 c2.52 0 5.16 0.2 7.56 0.96 l0 6.16 c-1.96 -0.96 -5.04 -1.32 -7.2 -1.32 c-4.88 0 -6.88 2 -6.88 6.64 c0 4.92 2.36 6.72 6.92 6.72 c2.04 0 5.36 -0.32 7.16 -1.32 z M230.12 34.44 l0 5.56 l-18.2 0 l0 -24.48 l6 0 l0 18.92 l12.2 0 z M233.12000000000003 15.52 l6 0 l0 24.48 l-6 0 l0 -24.48 z M243.64000000000001 15.52 l18.2 0 l0 5.56 l-12.2 0 l0 3.92 l9.8 0 l0 5.56 l-9.8 0 l0 3.88 l12.2 0 l0 5.56 l-18.2 0 l0 -24.48 z M280.84000000000003 15.52 l6 0 l0 24.48 l-6 0 l-9.6 -14.32 l0 14.32 l-6 0 l0 -24.48 l6 0 l9.6 14.32 l0 -14.32 z M290 15.52 l20.4 0 l0 5.56 l-7.2 0 l0 18.92 l-6 0 l0 -18.92 l-7.2 0 l0 -5.56 z M340.52000000000004 34.44 l0 5.56 l-18.2 0 l0 -24.48 l6 0 l0 18.92 l12.2 0 z M343.52000000000004 15.52 l6 0 l0 24.48 l-6 0 l0 -24.48 z M372.08000000000004 27.439999999999998 c1.76 1.24 2.8 3.08 2.8 5.24 c0 4.16 -3.84 7.32 -7.84 7.32 l-13 0 l0 -24.48 l12.2 0 c3.2 0 5.84 1.72 7.24 4.56 c0.4 0.92 0.6 1.84 0.6 2.8 c0 1.8 -0.72 3.28 -2 4.56 z M360.04 21.08 l0 3.92 l6.2 0 c1.04 0 1.84 -1 1.84 -2 c0 -1.04 -0.76 -1.92 -1.84 -1.92 l-6.2 0 z M360.04 30.560000000000002 l0 3.88 l7 0 c1.08 0 1.84 -0.88 1.84 -1.92 c0 -0.52 -0.2 -1 -0.56 -1.4 c-0.36 -0.36 -0.8 -0.56 -1.28 -0.56 l-7 0 z"></path></g><g id="SvgjsG1082" featureKey="sloganFeature-0" transform="matrix(0.6042068600654602,0,0,0.6042068600654602,109.95166335284517,39.37177550648572)" fill="#111111"><path d="M8.72 17.52 l-4.5 0 l-0.88 2.48 l-3.26 0 l4.9 -12.24 l3 0 l4.9 12.24 l-3.28 0 z M5.2 14.74 l2.54 0 l-1.26 -3.56 z M26.599 7.76 l3 0 l0 7.24 c0 3.14 -2.44 5.1 -5.4 5.1 c-0.22 0 -0.4 0 -0.5 -0.02 s-0.24 -0.06 -0.38 -0.08 l0 -2.78 c0.26 0.06 0.54 0.1 0.8 0.1 c1.54 0 2.48 -0.72 2.48 -2.32 l0 -7.24 z M42.088499999999996 17.52 l-4.5 0 l-0.88 2.48 l-3.26 0 l4.9 -12.24 l3 0 l4.9 12.24 l-3.28 0 z M38.5685 14.74 l2.54 0 l-1.26 -3.56 z M57.577999999999996 7.76 l3.28 0 l-4.9 12.24 l-3 0 l-4.9 -12.24 l3.26 0 l3.14 8.82 z M71.36749999999999 17.52 l-4.5 0 l-0.88 2.48 l-3.26 0 l4.9 -12.24 l3 0 l4.9 12.24 l-3.28 0 z M67.8475 14.74 l2.54 0 l-1.26 -3.56 z M96.34649999999999 16.58 l0 3.08 c-1.24 0.34 -2.48 0.48 -3.76 0.48 c-3.76 0 -6.28 -2.58 -6.28 -6.24 c0 -3.76 2.62 -6.24 6.26 -6.24 c1.26 0 2.58 0.1 3.78 0.48 l0 3.08 c-0.98 -0.48 -2.52 -0.66 -3.6 -0.66 c-2.44 0 -3.44 1 -3.44 3.32 c0 2.46 1.18 3.36 3.46 3.36 c1.02 0 2.68 -0.16 3.58 -0.66 z M109.97599999999998 17.22 l0 2.78 l-9.1 0 l0 -12.24 l3 0 l0 9.46 l6.1 0 z M114.2655 7.76 l3 0 l0 12.24 l-3 0 l0 -12.24 z M122.315 7.76 l9.1 0 l0 2.78 l-6.1 0 l0 1.96 l4.9 0 l0 2.78 l-4.9 0 l0 1.94 l6.1 0 l0 2.78 l-9.1 0 l0 -12.24 z M143.7045 7.76 l3 0 l0 12.24 l-3 0 l-4.8 -7.16 l0 7.16 l-3 0 l0 -12.24 l3 0 l4.8 7.16 l0 -7.16 z M151.07399999999998 7.76 l10.2 0 l0 2.78 l-3.6 0 l0 9.46 l-3 0 l0 -9.46 l-3.6 0 l0 -2.78 z M181.913 17.22 l0 2.78 l-9.1 0 l0 -12.24 l3 0 l0 9.46 l6.1 0 z M186.20250000000001 7.76 l3 0 l0 12.24 l-3 0 l0 -12.24 z M203.27200000000002 13.719999999999999 c0.88 0.62 1.4 1.54 1.4 2.62 c0 2.08 -1.92 3.66 -3.92 3.66 l-6.5 0 l0 -12.24 l6.1 0 c1.6 0 2.92 0.86 3.62 2.28 c0.2 0.46 0.3 0.92 0.3 1.4 c0 0.9 -0.36 1.64 -1 2.28 z M197.252 10.54 l0 1.96 l3.1 0 c0.52 0 0.92 -0.5 0.92 -1 c0 -0.52 -0.38 -0.96 -0.92 -0.96 l-3.1 0 z M197.252 15.280000000000001 l0 1.94 l3.5 0 c0.54 0 0.92 -0.44 0.92 -0.96 c0 -0.26 -0.1 -0.5 -0.28 -0.7 c-0.18 -0.18 -0.4 -0.28 -0.64 -0.28 l-3.5 0 z M212.16150000000002 10.58 l0 2.92 l2.8 0 c0.92 0 1.46 -0.54 1.46 -1.46 s-0.54 -1.46 -1.46 -1.46 l-2.8 0 z M216.70150000000004 15.48 c0.56 0.76 1.12 1.52 1.7 2.26 c0.56 0.74 1.12 1.5 1.68 2.26 l-3.66 0 c-0.72 -0.96 -1.42 -1.92 -2.12 -2.88 c-0.7 -0.94 -1.42 -1.9 -2.14 -2.86 l0 5.74 l-3 0 l0 -12.24 l5.8 0 c2.28 0 4.22 1.74 4.22 4.04 c0 1.62 -1 3.04 -2.48 3.68 z M231.71100000000004 17.52 l-4.5 0 l-0.88 2.48 l-3.26 0 l4.9 -12.24 l3 0 l4.9 12.24 l-3.28 0 z M228.19100000000003 14.74 l2.54 0 l-1.26 -3.56 z M242.88050000000004 10.58 l0 2.92 l2.8 0 c0.92 0 1.46 -0.54 1.46 -1.46 s-0.54 -1.46 -1.46 -1.46 l-2.8 0 z M247.42050000000006 15.48 c0.56 0.76 1.12 1.52 1.7 2.26 c0.56 0.74 1.12 1.5 1.68 2.26 l-3.66 0 c-0.72 -0.96 -1.42 -1.92 -2.12 -2.88 c-0.7 -0.94 -1.42 -1.9 -2.14 -2.86 l0 5.74 l-3 0 l0 -12.24 l5.8 0 c2.28 0 4.22 1.74 4.22 4.04 c0 1.62 -1 3.04 -2.48 3.68 z M258.11000000000007 20 l0 -4.54 c-2.42 -0.54 -3.82 -2.54 -3.82 -4.94 l0 -2.76 l3 0 l0 2.76 c0 1.44 0.86 2.32 2.3 2.32 c1.48 0 2.3 -0.86 2.3 -2.32 l0 -2.76 l3 0 l0 2.76 c0 2.44 -1.42 4.38 -3.78 4.94 l0 4.54 l-3 0 z"></path></g>
			</g>
		</svg>
	