<?xml version="1.0" standalone="no"?>
<!DOCTYPE svg PUBLIC "-//W3C//DTD SVG 20010904//EN"
 "http://www.w3.org/TR/2001/REC-SVG-20010904/DTD/svg10.dtd">
<svg version="1.0" xmlns="http://www.w3.org/2000/svg"
 width="119.000000pt" height="119.000000pt" viewBox="0 0 119.000000 119.000000"
 preserveAspectRatio="xMidYMid meet">

<g transform="translate(0.000000,119.000000) scale(0.100000,-0.100000)"
fill="#000000" stroke="none">
<path d="M105 1176 c-42 -18 -93 -79 -100 -118 -3 -18 -5 -204 -3 -413 l3
-380 34 -63 c39 -72 88 -120 163 -159 51 -27 59 -28 230 -31 143 -3 189 0 235
13 112 32 215 121 270 233 26 52 28 66 28 172 0 103 -3 121 -26 170 -14 30
-43 77 -64 104 -32 42 -36 54 -31 86 8 50 -10 144 -39 200 -32 63 -106 134
-174 168 -55 27 -59 27 -276 29 -168 2 -227 0 -250 -11z m463 -227 c29 -15 54
-37 74 -68 27 -42 29 -52 25 -111 -2 -36 -7 -72 -10 -80 -4 -10 6 -24 32 -41
107 -74 116 -253 17 -351 -55 -56 -97 -68 -236 -68 -168 0 -217 22 -255 113
-12 30 -15 87 -15 320 0 207 3 286 12 295 8 8 59 12 162 12 133 0 155 -2 194
-21z"/>
<path d="M386 815 c-12 -12 -16 -30 -14 -59 3 -40 4 -41 41 -44 51 -4 87 19
87 57 0 34 -17 50 -62 58 -25 3 -39 0 -52 -12z"/>
<path d="M377 523 c-11 -10 -8 -82 3 -104 9 -16 22 -19 93 -19 70 0 87 3 105
20 27 26 28 64 2 90 -17 17 -33 20 -108 20 -49 0 -92 -3 -95 -7z"/>
</g>
</svg>
