<?xml version="1.0" encoding="iso-8859-1"?>
<!-- Generator: Adobe Illustrator 19.0.0, SVG Export Plug-In . SVG Version: 6.00 Build 0)  -->
<svg version="1.1" id="Layer_1" xmlns="http://www.w3.org/2000/svg" xmlns:xlink="http://www.w3.org/1999/xlink" x="0px" y="0px"
	 viewBox="0 0 511.999 511.999" style="enable-background:new 0 0 511.999 511.999;" xml:space="preserve">
<path style="fill:#D5F4FA;" d="M505.183,6.816C500.817,2.451,494.898,0,488.725,0L23.272,0.028C10.419,0.028,0,10.446,0,23.301
	v372.335c0,12.853,10.42,23.273,23.273,23.273h248.242c12.853,0,23.273-10.42,23.273-23.273h46.545
	c0,12.853,10.42,23.273,23.273,23.273h124.121c12.853,0,23.273-10.42,23.273-23.273V23.273
	C511.999,17.099,509.547,11.18,505.183,6.816z"/>
<g>
	<path style="fill:#C0FCFF;" d="M505.183,6.816C500.817,2.451,494.898,0,488.725,0L256,0.014v418.894h15.515
		c12.853,0,23.273-10.42,23.273-23.273h46.545c0,12.853,10.42,23.273,23.273,23.273h124.121c12.853,0,23.273-10.42,23.273-23.273
		V23.273C511.999,17.099,509.547,11.18,505.183,6.816z"/>
	<path style="fill:#C0FCFF;" d="M395.632,93.091l-279.272,0.028c-12.853,0.002-23.271,10.42-23.27,23.276
		c0.002,12.851,10.422,23.271,23.276,23.27l279.272-0.028c12.853-0.002,23.271-10.421,23.27-23.276
		C418.907,103.509,408.488,93.089,395.632,93.091z"/>
	<path style="fill:#C0FCFF;" d="M162.909,201.696c-0.003,0-0.009,0-0.014,0l-46.545,0.028
		c-12.853,0.008-23.266,10.434-23.259,23.287c0.008,12.85,10.425,23.259,23.273,23.259c0.003,0,0.009,0,0.014,0l46.545-0.028
		c12.853-0.008,23.266-10.434,23.259-23.287C186.174,212.105,175.759,201.696,162.909,201.696z"/>
</g>
<path style="fill:#5192C9;" d="M364.605,341.332c-12.853,0-23.273,10.42-23.273,23.273h-46.545c0-12.853-10.42-23.273-23.273-23.273
	c-12.853,0-23.273,10.42-23.273,23.273v124.121c0,7.481,3.595,14.507,9.664,18.88c6.068,4.374,13.869,5.565,20.967,3.198
	l39.186-13.062l39.186,13.062c2.403,0.801,4.887,1.195,7.357,1.195c4.824,0,9.596-1.5,13.608-4.392
	c6.07-4.374,9.666-11.399,9.666-18.88V364.605C387.878,351.752,377.46,341.332,364.605,341.332z"/>
<path style="fill:#447BA7;" d="M364.605,341.332c-12.853,0-23.273,10.42-23.273,23.273H318.06v133.137l39.186,13.062
	c2.403,0.801,4.887,1.195,7.357,1.195c4.824,0,9.596-1.5,13.608-4.392c6.07-4.374,9.666-11.399,9.666-18.88V364.605
	C387.878,351.752,377.46,341.332,364.605,341.332z"/>
<path style="fill:#F4D371;" d="M318.06,201.696c-55.608,0-100.848,45.24-100.848,100.848s45.24,100.848,100.848,100.848
	s100.848-45.241,100.848-100.848S373.668,201.696,318.06,201.696z"/>
<path style="fill:#E9A35F;" d="M318.06,201.696v201.696c55.608,0,100.848-45.241,100.848-100.848S373.668,201.696,318.06,201.696z"
	/>
<path style="fill:#89D2E8;" d="M395.632,93.091L256,93.105v46.545l139.639-0.014c12.853-0.002,23.271-10.421,23.27-23.276
	C418.907,103.509,408.488,93.089,395.632,93.091z"/>
<g>
</g>
<g>
</g>
<g>
</g>
<g>
</g>
<g>
</g>
<g>
</g>
<g>
</g>
<g>
</g>
<g>
</g>
<g>
</g>
<g>
</g>
<g>
</g>
<g>
</g>
<g>
</g>
<g>
</g>
</svg>
