<?xml version="1.0" encoding="iso-8859-1"?>
<!-- Generator: Adobe Illustrator 19.0.0, SVG Export Plug-In . SVG Version: 6.00 Build 0)  -->
<svg version="1.1" id="Layer_1" xmlns="http://www.w3.org/2000/svg" xmlns:xlink="http://www.w3.org/1999/xlink" x="0px" y="0px"
	 viewBox="0 0 512 512" style="enable-background:new 0 0 512 512;" xml:space="preserve">
<polygon style="fill:#71CCCE;" points="0,25.319 0,92.835 340.396,115.341 329.143,25.319 "/>
<polygon style="fill:#41BBBE;" points="512,25.319 329.143,25.319 329.143,115.341 512,92.835 "/>
<rect y="92.835" style="fill:#D0EEEF;" width="512" height="393.846"/>
<circle style="fill:#F76720;" cx="420.853" cy="59.077" r="8.44"/>
<circle style="fill:#D0EEEF;" cx="374.716" cy="59.077" r="8.44"/>
<circle style="fill:#D92622;" cx="466.989" cy="59.077" r="8.44"/>
<path style="fill:#20AAB0;" d="M394.507,309.173v-45.011h-41.975c-2.495-10.702-6.733-20.742-12.39-29.809l29.711-29.711
	l-31.827-31.827l-29.711,29.711c-9.066-5.658-19.106-9.896-29.809-12.39V148.16h-45.011v41.975
	c-10.702,2.495-20.742,6.733-29.809,12.39l-29.711-29.711l-31.827,31.827l29.711,29.711c-5.658,9.066-9.896,19.106-12.39,29.809
	h-41.974v45.011h41.974c2.495,10.702,6.733,20.742,12.39,29.809l-29.711,29.711l31.827,31.827l29.711-29.711
	c9.066,5.658,19.106,9.896,29.809,12.39v41.974h45.011v-41.974c10.702-2.495,20.742-6.733,29.809-12.39l29.711,29.711l31.827-31.827
	l-29.711-29.711c5.658-9.066,9.896-19.106,12.39-29.809H394.507z M256,340.68c-29.831,0-54.013-24.182-54.013-54.013
	c0-29.831,24.182-54.013,54.013-54.013c29.831,0,54.013,24.182,54.013,54.013C310.013,316.497,285.831,340.68,256,340.68z"/>
<g>
</g>
<g>
</g>
<g>
</g>
<g>
</g>
<g>
</g>
<g>
</g>
<g>
</g>
<g>
</g>
<g>
</g>
<g>
</g>
<g>
</g>
<g>
</g>
<g>
</g>
<g>
</g>
<g>
</g>
</svg>
